Coordinates
version=1
nRows=6
nColumns=34
inDegrees=yes

Units are S.I. units (second, meters, Newtons, ...)
If the header above contains a line with 'inDegrees', this indicates whether rotational values are in degrees (yes) or radians (no).

endheader
time	pelvis_tilt	pelvis_list	pelvis_rotation	pelvis_tx	pelvis_ty	pelvis_tz	hip_flexion_r	hip_adduction_r	hip_rotation_r	knee_angle_r	ankle_angle_r	subtalar_angle_r	mtp_angle_r	hip_flexion_l	hip_adduction_l	hip_rotation_l	knee_angle_l	ankle_angle_l	subtalar_angle_l	mtp_angle_l	lumbar_extension	lumbar_bending	lumbar_rotation	arm_flex_r	arm_add_r	arm_rot_r	elbow_flex_r	pro_sup_r	arm_flex_l	arm_add_l	arm_rot_l	elbow_flex_l	pro_sup_l
      5.51666670	     -3.49744203	     -4.70602696	    -67.59087798	      0.15329399	      1.01333356	     -0.13050052	     -6.83515592	     -5.17418556	      6.07435431	     10.42249220	     11.13237626	     -1.90990012	      0.00000000	    -10.70060113	     -4.53863422	     -0.91002368	      1.75948482	      9.37251904	     -1.20985153	      0.00000000	    -14.15640512	      3.43938882	     -0.33964816	      9.22549829	     -6.53090820	      4.72995740	     18.46525622	    119.26565103	      7.94103288	     -7.02479582	     11.44444966	     13.85163483	    111.92285063
      5.53333330	     -3.47052373	     -4.64977881	    -67.59277250	      0.15257854	      1.01320433	     -0.12923192	     -6.84818695	     -5.16515808	      6.07420184	     10.42715694	     11.13176752	     -1.90929436	      0.00000000	    -10.70836433	     -4.54682045	     -0.90987401	      1.76536740	      9.37257736	     -1.21019003	      0.00000000	    -14.16944151	      3.45711049	     -0.34052342	      9.22564923	     -6.53712802	      4.72871478	     18.46403589	    119.26533447	      7.94249394	     -7.02169386	     11.44373635	     13.85356805	    111.92237492
      5.55000000	     -3.44030038	     -4.58924522	    -67.59611290	      0.15187691	      1.01300692	     -0.12794125	     -6.86364747	     -5.15612969	      6.07341133	     10.42902086	     11.13220955	     -1.90916822	      0.00000000	    -10.71549955	     -4.55643658	     -0.90922719	      1.77267687	      9.37264815	     -1.21045826	      0.00000000	    -14.18327936	      3.47574730	     -0.33914569	      9.22175775	     -6.54672560	      4.72667719	     18.46041571	    119.26481732	      7.93860856	     -7.01924298	     11.44249051	     13.85451445	    111.92162376
      5.56666670	     -3.39020945	     -4.36970467	    -67.61008272	      0.15195421	      1.01245627	     -0.12533053	     -7.19061060	     -5.27526271	      6.17229808	      9.73947545	     11.25897326	     -1.88517614	      0.00000000	    -10.61372307	     -4.44634861	     -0.92215847	      1.90435043	      9.53548708	     -1.26314789	      0.00000000	    -13.75701314	      3.44025874	     -0.15774954	      8.79029615	     -6.67381213	      4.57938542	     18.28697594	    119.21713365	      7.59087309	     -6.96020333	     11.23883054	     14.07625695	    111.81046251
      5.58333330	     -3.35658386	     -4.30424806	    -67.61277777	      0.15120274	      1.01212812	     -0.12391421	     -7.20476016	     -5.26328442	      6.17173708	      9.74454580	     11.25788755	     -1.88480759	      0.00000000	    -10.62340851	     -4.45704652	     -0.92122489	      1.91179203	      9.53497082	     -1.26280235	      0.00000000	    -13.77588829	      3.46332067	     -0.15790757	      8.79032227	     -6.67837263	      4.57789642	     18.28648098	    119.21670132	      7.59085021	     -6.95646937	     11.23762073	     14.07780595	    111.80977818
      5.60000000	     -3.32538642	     -4.23622142	    -67.61635918	      0.15040642	      1.01198237	     -0.12248631	     -7.22153148	     -5.25469662	      6.17078842	      9.74891060	     11.25834716	     -1.88531130	      0.00000000	    -10.63205581	     -4.46685017	     -0.91976387	      1.92034788	      9.53468852	     -1.26244213	      0.00000000	    -13.79631655	      3.48948164	     -0.15709354	      8.78574944	     -6.68403217	      4.57609457	     18.28387613	    119.21617911	      7.58887419	     -6.95368137	     11.23610812	     14.07932400	    111.80897743
